<svg width="119" height="43" viewBox="0 0 119 43" fill="none" xmlns="http://www.w3.org/2000/svg">
<path d="M35.6294 21.8909V42.9814H37.5285H39.4277V21.8909V0.800449H37.5285H35.6294V21.8909Z" fill="#161616"/>
<path d="M0.976612 8.48907L1.00086 11.2277L1.91405 11.2513L2.81917 11.2749V9.41768V7.56833H4.7183H6.62551L6.60126 6.67906L6.57702 5.79767L3.76469 5.77406L0.960449 5.75832L0.976612 8.48907Z" fill="#161616"/>
<path d="M8.47611 7.56818V9.37819L6.60123 9.39392L4.71826 9.41753V10.3225V11.2275H7.50634H10.2944L10.3187 8.48892L10.3348 5.75817H9.40547H8.47611V7.56818Z" fill="#161616"/>
<path d="M12.1936 6.66336V7.56836H13.6078H15.0221V6.66336V5.75835H13.6078H12.1936V6.66336Z" fill="#161616"/>
<path d="M16.8809 6.66336V7.56836H19.2245H21.5681V6.66336V5.75835H19.2245H16.8809V6.66336Z" fill="#161616"/>
<path d="M23.4268 10.3226V14.887H28.114H32.8012V10.3226V5.75824H28.114H23.4268V10.3226ZM30.9425 10.3226V13.077L28.1382 13.0612L25.3259 13.0376L25.3016 10.299L25.2855 7.56824H28.114H30.9425V10.3226Z" fill="#161616"/>
<path d="M27.1766 9.48049C27.1604 9.53558 27.1523 9.95267 27.1604 10.4091L27.1846 11.2275H28.114H29.0434V10.3225V9.41753L28.1302 9.39392C27.4271 9.37819 27.2089 9.39392 27.1766 9.48049Z" fill="#161616"/>
<path d="M12.1936 12.1326V14.887H13.123H14.0523L14.0685 13.0691L14.0927 11.2591L15.4666 11.2433L16.8404 11.2276L16.8647 10.299L16.8889 9.37825H14.5372H12.1936V12.1326Z" fill="#161616"/>
<path d="M18.7557 10.2989L18.7799 11.2275H20.1538H21.5276L21.5519 10.2989L21.5761 9.37819H20.1538H18.7314L18.7557 10.2989Z" fill="#161616"/>
<path d="M0.960449 13.982V14.887L3.77277 14.8712L6.57702 14.8476L6.60126 13.9584L6.62551 13.077H3.78894H0.960449V13.982Z" fill="#161616"/>
<path d="M8.47607 14.887V16.697H9.40543H10.3348V14.887V13.077H9.40543H8.47607V14.887Z" fill="#161616"/>
<path d="M16.8809 13.982V14.887H18.2951H19.7093V18.5464V22.2136L20.6225 22.19L21.5277 22.1664L21.5519 17.6178L21.5681 13.077H19.2245H16.8809V13.982Z" fill="#161616"/>
<path d="M68.1652 15.3748C68.1409 15.4771 68.1167 15.9572 68.1167 16.453V17.3501L68.6258 17.3029C68.9006 17.2714 69.7572 17.2321 70.533 17.2006L71.9311 17.1455L71.8988 22.426L71.8745 27.7144H73.208H74.5414L74.5091 22.4417L74.4848 17.1691H75.1556C75.5273 17.1691 76.3597 17.2085 77.0062 17.2478C77.6447 17.2871 78.178 17.3108 78.1861 17.3029C78.1942 17.295 78.2184 16.815 78.2508 16.2405L78.3073 15.2017H73.2645H68.2137L68.1652 15.3748Z" fill="#161616"/>
<path d="M0.960449 17.6021V18.5071H2.81917H4.67789L4.69405 20.3329L4.7183 22.1665H5.64766H6.57702V19.4515V16.7365L3.77277 16.7129L0.960449 16.6971V17.6021Z" fill="#161616"/>
<path d="M12.1936 17.6021V18.5071H14.5372H16.8808V17.6021V16.6971H14.5372H12.1936V17.6021Z" fill="#161616"/>
<path d="M23.4268 17.6021V18.5071H24.3561H25.2855V17.6021V16.6971H24.3561H23.4268V17.6021Z" fill="#161616"/>
<path d="M27.1845 16.7994C27.1603 16.8467 27.1522 18.0822 27.1603 19.5302L27.1845 22.1665H28.1139H29.0432L29.0675 20.3329L29.0836 18.5071H30.9424H32.8011V17.6021V16.6971H30.013C27.8472 16.6971 27.2087 16.7207 27.1845 16.7994Z" fill="#161616"/>
<path d="M91.2377 16.9094L90.478 16.9409L90.5265 17.2793C90.6881 18.4282 90.7609 21.1039 90.7124 24.2675L90.6558 27.7144H91.6902H92.7327L92.7004 25.9043C92.6762 24.8656 92.6923 24.0943 92.7408 24.0943C92.9024 24.0943 93.1934 24.3698 93.6783 24.9836C94.3409 25.8099 95.3349 27.2815 95.3996 27.5255C95.4481 27.7144 95.4481 27.7144 96.6522 27.7144C97.5735 27.7144 97.8563 27.6907 97.8563 27.6121C97.8563 27.2343 95.634 24.173 94.9066 23.5513C94.7531 23.4176 94.6238 23.2838 94.6238 23.2444C94.6238 23.2129 94.8824 22.9769 95.1895 22.7172C95.9411 22.1112 97.3715 20.5766 97.3715 20.3878C97.3715 20.3484 96.8542 20.3169 96.2239 20.3248H95.0683L94.6884 20.8914C94.2844 21.5052 93.2419 22.725 92.9429 22.9454C92.8378 23.0241 92.7327 23.0634 92.7004 23.0319C92.6358 22.969 92.66 18.4518 92.7327 17.4996L92.7812 16.8543L92.3852 16.8701C92.1751 16.8779 91.6579 16.9015 91.2377 16.9094Z" fill="#161616"/>
<path d="M54.4591 17.1064C53.9985 17.3346 53.7803 17.6966 53.7803 18.2396C53.7803 18.9085 54.2409 19.3728 54.9278 19.3728C55.6956 19.3728 56.237 18.8928 56.2936 18.1688C56.3744 17.1772 55.4289 16.6342 54.4591 17.1064Z" fill="#161616"/>
<path d="M65.4498 17.1064C64.9892 17.3346 64.771 17.6966 64.771 18.2396C64.771 18.9085 65.2316 19.3728 65.9186 19.3728C66.6863 19.3728 67.2277 18.8928 67.2843 18.1688C67.3651 17.1772 66.4196 16.6342 65.4498 17.1064Z" fill="#161616"/>
<path d="M80.1583 17.1064C79.6977 17.3346 79.4795 17.6966 79.4795 18.2396C79.4795 18.9085 79.9401 19.3728 80.6271 19.3728C81.3948 19.3728 81.9362 18.8928 81.9928 18.1688C82.0736 17.1772 81.1281 16.6342 80.1583 17.1064Z" fill="#161616"/>
<path d="M43.4282 22.7172V27.7144H44.5273H45.6183L45.586 25.5109L45.5455 23.3074H47.5497H49.5539L49.4974 25.5109L49.4327 27.7144H50.5803H51.7197L51.6632 27.3366C51.5824 26.8487 51.5824 18.3968 51.6551 18.0112L51.7197 17.72H50.5803H49.4489L49.4974 19.7267L49.5539 21.7335H47.5578H45.5536L45.586 19.7267L45.6102 17.72H44.5192H43.4282V22.7172Z" fill="#161616"/>
<path d="M108.928 18.2001C108.637 18.2394 108.282 18.2867 108.144 18.3103L107.878 18.3575V19.2389C107.878 20.5137 107.886 20.4901 107.239 20.4587L106.706 20.435L106.681 21.1827L106.657 21.9381L107.183 21.9067L107.7 21.8752L107.732 23.9055C107.764 25.6919 107.789 26.0067 107.934 26.4395C108.16 27.0927 108.427 27.4232 108.969 27.6751C109.51 27.9348 110.585 28.0213 111.223 27.8561C111.676 27.738 111.7 27.6908 111.781 26.8252C111.821 26.4159 111.813 26.3687 111.692 26.4159C111.619 26.4395 111.336 26.4789 111.07 26.5025C110.148 26.5812 109.793 26.2271 109.655 25.0781C109.567 24.2911 109.55 22.6464 109.631 22.1821L109.68 21.8752L110.617 21.8988L111.555 21.9303L111.579 21.1591L111.603 20.3957L110.617 20.4508L109.631 20.498L109.696 19.3097C109.752 18.1765 109.744 18.1135 109.599 18.1214C109.518 18.1293 109.219 18.1607 108.928 18.2001Z" fill="#161616"/>
<path d="M8.47607 20.3565V22.2058H12.6784H16.8807V21.2615V20.3171H13.6078H10.3348V19.4121V18.5071H9.40543H8.47607V20.3565Z" fill="#161616"/>
<path d="M86.2593 20.1753C84.837 20.435 83.5844 21.6154 83.1884 23.0791C83.043 23.6143 83.0349 24.6452 83.1803 25.1567C83.447 26.1483 84.2713 27.1477 85.1199 27.5255C86.122 27.9662 87.7787 28.0685 88.7807 27.7458L89.201 27.612L89.2495 27.1713C89.2737 26.9274 89.3141 26.5732 89.3303 26.3844C89.3626 26.1089 89.3464 26.0538 89.2495 26.0932C89.1848 26.1168 88.8292 26.1955 88.4656 26.2663C86.9382 26.5654 85.8391 26.1168 85.3057 24.9678C85.0552 24.4406 85.0633 23.4175 85.3138 22.8667C85.6775 22.0876 86.3563 21.6547 87.221 21.6547C87.6009 21.6547 88.3443 21.7964 88.6514 21.9223C88.7565 21.9695 88.7969 21.8515 88.9181 21.1747C88.9909 20.734 89.0232 20.3405 88.9909 20.309C88.7888 20.1123 87.0513 20.0257 86.2593 20.1753Z" fill="#161616"/>
<path d="M101.323 20.2225C99.6826 20.6553 98.5835 22.2135 98.5835 24.1022C98.5835 25.2118 98.9229 26.0696 99.6502 26.8251C100.458 27.6514 101.59 27.9976 103.222 27.9268C103.764 27.9032 104.467 27.8245 104.79 27.7537C105.477 27.5963 105.485 27.5884 105.574 26.6677C105.622 26.0853 105.622 26.046 105.477 26.0932C105.17 26.1876 103.699 26.3765 103.255 26.3765C102.568 26.3765 102.018 26.2348 101.59 25.9515C101.178 25.6682 100.79 25.1331 100.685 24.7003L100.628 24.4248L103.158 24.3698L105.687 24.3147L105.744 23.811C105.808 23.1657 105.663 22.2135 105.412 21.6784C105.138 21.0881 104.539 20.5373 103.95 20.3169C103.287 20.073 102.058 20.0257 101.323 20.2225ZM103.109 21.6705C103.529 21.8751 103.796 22.2843 103.877 22.8431L103.933 23.2051L102.891 23.2523C102.325 23.2838 101.574 23.3074 101.226 23.3074H100.588L100.644 23.0477C100.798 22.3551 101.283 21.7177 101.776 21.5839C102.22 21.4501 102.737 21.4895 103.109 21.6705Z" fill="#161616"/>
<path d="M114.787 20.191C113.882 20.4192 113.397 20.7576 113.082 21.3872C112.904 21.7492 112.856 21.9459 112.856 22.3551C112.864 23.3703 113.316 23.8504 115.021 24.6452C116.25 25.2197 116.549 25.4479 116.549 25.8256C116.549 26.164 116.331 26.3529 115.805 26.4631C115.264 26.5732 114.019 26.5103 113.373 26.345C113.13 26.2742 112.928 26.2348 112.928 26.2427C112.92 26.2506 112.872 26.526 112.815 26.8487C112.759 27.1713 112.694 27.494 112.678 27.5727C112.621 27.7537 113.244 27.8717 114.504 27.9268C116.177 27.9976 117.317 27.6907 117.923 27.0061C118.278 26.5968 118.416 26.1247 118.367 25.4479C118.286 24.3383 117.753 23.8582 115.741 23.0791C114.884 22.7486 114.65 22.5361 114.682 22.1505C114.698 21.9459 114.771 21.82 114.933 21.702C115.135 21.5524 115.264 21.5367 116.064 21.5446C116.654 21.5524 117.106 21.5997 117.373 21.6784C117.591 21.7492 117.785 21.7964 117.793 21.7807C117.882 21.702 118.076 20.3799 118.012 20.3169C117.785 20.1044 115.506 20.0179 114.787 20.191Z" fill="#161616"/>
<path d="M54.6207 20.3642C54.1115 20.4192 53.6913 20.4665 53.6913 20.4665C53.6832 20.4743 53.7317 20.8206 53.7964 21.2377C53.9176 22.0719 53.9661 26.77 53.8529 27.3838L53.7964 27.7144H54.9035C55.9056 27.7144 56.0107 27.6986 55.9622 27.5806C55.8895 27.3996 55.841 22.4417 55.9056 21.2377L55.9541 20.2382L55.7521 20.2461C55.6389 20.254 55.1298 20.3012 54.6207 20.3642Z" fill="#161616"/>
<path d="M65.6114 20.3642C65.1023 20.4192 64.682 20.4665 64.682 20.4665C64.674 20.4743 64.7224 20.8206 64.7871 21.2377C64.9083 22.0719 64.9568 26.77 64.8437 27.3838L64.7871 27.7144H65.8942C66.8963 27.7144 67.0014 27.6986 66.9529 27.5806C66.8802 27.3996 66.8317 22.4417 66.8963 21.2377L66.9448 20.2382L66.7428 20.2461C66.6296 20.254 66.1205 20.3012 65.6114 20.3642Z" fill="#161616"/>
<path d="M80.3199 20.3642C79.8108 20.4192 79.3905 20.4665 79.3905 20.4665C79.3824 20.4743 79.4309 20.8206 79.4956 21.2377C79.6168 22.0719 79.6653 26.7621 79.5522 27.376L79.4956 27.7144H80.6027C81.5159 27.7144 81.7018 27.6986 81.6695 27.6042C81.5806 27.3917 81.524 23.0162 81.5887 21.6312L81.6533 20.2382L81.4513 20.2461C81.3381 20.254 80.829 20.3012 80.3199 20.3642Z" fill="#161616"/>
<path d="M0.960449 23.0713V25.8257H2.81917H4.67789V24.9207V24.0157H3.74853H2.81917V22.1663V20.317H1.88981H0.960449V23.0713Z" fill="#161616"/>
<path d="M23.459 20.4194C23.4429 20.4744 23.4348 20.8915 23.4429 21.348L23.4671 22.1664L24.3803 22.19L25.2854 22.2136V21.2614V20.3171H24.3965C23.7338 20.3171 23.4914 20.3407 23.459 20.4194Z" fill="#161616"/>
<path d="M30.9425 22.1663V24.0157H30.0131H29.0837V24.9207V25.8257H30.9425H32.8012V23.0713V20.317H31.8718H30.9425V22.1663Z" fill="#161616"/>
<path d="M57.4495 21.1118C57.4495 21.8987 57.4495 21.9066 57.6353 21.8673C57.7323 21.8436 58.5162 21.7964 59.3728 21.7649C60.7144 21.7177 60.9245 21.7256 60.9245 21.8279C60.9245 22.0483 59.4617 23.9842 58.1283 25.5109L57.4737 26.2664L57.4252 26.9904L57.3687 27.7144H60.3588H63.3489V26.9195V26.1168L63.0499 26.164C62.8802 26.1877 62.0963 26.2349 61.3124 26.2664C59.882 26.3214 59.8739 26.3214 59.8739 26.1562C59.8739 25.8886 61.1265 24.173 62.5973 22.426L63.1064 21.82L63.1549 21.0724L63.2115 20.3169H60.3264H57.4495V21.1118Z" fill="#161616"/>
<path d="M6.59307 24.897L6.60923 25.7863L7.54667 25.8099L8.47603 25.8335V24.9206V24.0156H7.53051H6.5769L6.59307 24.897Z" fill="#161616"/>
<path d="M10.335 24.9208V25.8258H11.2643H12.1937V27.6358V29.4458H14.5373H16.8809V28.5408V27.6358H15.4666H14.0524V25.8258V24.0158H12.1937H10.335V24.9208Z" fill="#161616"/>
<path d="M16.8809 24.9207V25.8257H19.2245H21.5681V24.9207V24.0157H19.2245H16.8809V24.9207Z" fill="#161616"/>
<path d="M23.4268 24.9207V25.8257L25.2936 25.8099L27.1604 25.7863L27.1765 24.8971L27.1846 24.0157H25.3097H23.4268V24.9207Z" fill="#161616"/>
<path d="M0.960449 32.2V36.7644H5.64766H10.3349V32.2V27.6357H5.64766H0.960449V32.2ZM8.45998 32.2158L8.47615 34.9544H5.64766H2.81917V32.2V29.4457L5.6315 29.4614L8.43574 29.485L8.45998 32.2158Z" fill="#161616"/>
<path d="M4.71025 31.3582C4.69409 31.4133 4.68601 31.8304 4.69409 32.2868L4.71833 33.1052H5.64769H6.57705V32.2002V31.2952L5.66386 31.2716C4.96077 31.2559 4.74258 31.2716 4.71025 31.3582Z" fill="#161616"/>
<path d="M19.6932 29.4537L19.669 31.2637L18.2951 31.2794L16.9213 31.2952L16.897 32.2159L16.8728 33.1445H19.2245H21.5681V30.3902V27.6358H20.6387H19.7094L19.6932 29.4537Z" fill="#161616"/>
<path d="M23.4268 32.2V36.7644H28.114H32.8012V32.2V27.6357H28.114H23.4268V32.2ZM30.9425 32.2V34.9544H28.114H25.2855V32.2551C25.2855 30.7678 25.3097 29.5244 25.342 29.5008C25.3663 29.4693 26.6432 29.4457 28.1705 29.4457H30.9425V32.2Z" fill="#161616"/>
<path d="M27.1766 31.3582C27.1604 31.4133 27.1523 31.8304 27.1604 32.2868L27.1846 33.1052H28.114H29.0434V32.2002V31.2952L28.1302 31.2716C27.4271 31.2559 27.2089 31.2716 27.1766 31.3582Z" fill="#161616"/>
<path d="M12.2502 31.303C12.2178 31.3345 12.1936 31.7595 12.1936 32.2553V33.1445H13.6078H15.0302L15.0059 32.2159L14.9817 31.2952L13.6402 31.2716C12.9048 31.2637 12.2825 31.2794 12.2502 31.303Z" fill="#161616"/>
<path d="M12.1936 35.8594V36.7644H14.5372H16.8808V35.8594V34.9544H14.5372H12.1936V35.8594Z" fill="#161616"/>
<path d="M18.7395 35.8594V36.7644H20.1537H21.568V35.8594V34.9544H20.1537H18.7395V35.8594Z" fill="#161616"/>
</svg>
