<?xml version="1.0" standalone="no"?>
<!DOCTYPE svg PUBLIC "-//W3C//DTD SVG 20010904//EN"
 "http://www.w3.org/TR/2001/REC-SVG-20010904/DTD/svg10.dtd">
<svg version="1.0" xmlns="http://www.w3.org/2000/svg"
 width="1464.000000pt" height="828.000000pt" viewBox="0 0 1464.000000 828.000000"
 preserveAspectRatio="xMidYMid meet">

<g transform="translate(0.000000,828.000000) scale(0.100000,-0.100000)"
fill="#000000" stroke="none">
<path d="M9825 6545 c-32 -31 -31 -37 5 -135 17 -45 30 -83 30 -86 0 -2 -356
-4 -790 -4 l-791 0 -24 -25 c-31 -30 -32 -65 -2 -93 l23 -22 821 0 821 0 10
-27 c6 -16 33 -86 61 -158 27 -71 97 -255 155 -408 59 -153 107 -283 109 -289
2 -11 -58 -36 -363 -152 -63 -25 -173 -67 -245 -94 -501 -192 -772 -296 -1059
-406 -181 -69 -334 -133 -342 -143 -32 -42 0 -107 52 -106 16 0 166 53 334
118 334 128 480 184 700 268 664 254 938 359 956 366 20 9 24 3 51 -67 21 -53
38 -81 54 -89 18 -10 129 -13 435 -13 320 0 413 -3 417 -12 84 -203 177 -434
177 -440 0 -4 -33 -8 -73 -8 -63 0 -79 -4 -119 -29 -55 -35 -88 -96 -88 -165
0 -38 19 -93 92 -264 133 -314 154 -333 382 -342 l140 -5 68 -165 c37 -91 68
-180 68 -198 0 -44 -38 -82 -81 -82 -82 0 -162 -49 -202 -123 -21 -40 -22 -53
-22 -277 0 -223 1 -237 22 -276 25 -47 73 -91 120 -111 47 -19 676 -19 751 1
134 36 262 127 333 237 76 119 106 281 76 410 -23 94 -393 1042 -414 1056 -29
22 -70 16 -92 -13 -12 -15 -21 -31 -21 -36 0 -4 85 -228 189 -496 105 -268
195 -509 202 -535 7 -29 9 -79 6 -123 -11 -146 -99 -273 -235 -337 l-67 -32
-330 -3 c-181 -2 -340 0 -352 3 -45 11 -53 48 -53 259 l0 194 26 31 c16 19 35
31 50 31 91 0 189 65 220 145 32 86 30 94 -306 915 -172 421 -315 771 -317
778 -4 9 63 12 315 12 l321 0 61 -157 c34 -87 84 -215 112 -286 31 -81 57
-131 69 -138 31 -16 70 -7 92 23 l20 27 -101 263 c-56 145 -102 266 -102 271
0 4 13 7 29 7 49 0 202 49 271 87 190 104 333 282 392 488 29 105 32 305 4
405 -77 279 -281 485 -566 571 -73 23 -89 23 -581 27 -475 3 -507 2 -527 -15
-32 -27 -37 -65 -14 -94 l20 -24 509 -5 c497 -6 510 -6 578 -29 117 -38 184
-80 270 -166 130 -129 195 -283 195 -460 0 -307 -226 -582 -525 -640 -68 -13
-174 -15 -695 -13 l-614 3 -53 140 c-68 179 -394 1032 -438 1148 -7 16 9 17
253 17 l261 0 20 26 c27 35 26 59 -4 89 l-24 25 -546 0 -546 0 -24 -25z m520
-285 c95 -248 422 -1102 430 -1123 7 -16 -3 -17 -150 -15 l-156 3 -88 230
c-49 127 -150 392 -226 590 -76 198 -148 388 -161 423 l-24 63 156 -3 156 -3
63 -165z m1240 -2130 c58 -140 105 -258 105 -262 0 -5 -38 -8 -85 -8 -98 0
-136 14 -160 59 -43 84 -165 388 -165 412 0 45 32 60 123 57 l78 -3 104 -255z"/>
<path d="M8684 5970 c-12 -5 -27 -23 -33 -41 -14 -42 -15 -514 -1 -556 18 -51
69 -62 113 -25 15 14 17 41 17 303 l0 288 -26 20 c-29 23 -38 24 -70 11z"/>
<path d="M8867 5960 l-27 -21 0 -195 c0 -181 1 -195 20 -214 29 -29 74 -26
100 7 20 26 21 36 18 215 -3 202 -5 210 -58 223 -18 4 -34 0 -53 -15z"/>
<path d="M9055 5955 l-25 -24 0 -236 c0 -222 1 -236 20 -255 11 -11 33 -20 50
-20 17 0 39 9 50 20 19 19 20 33 20 255 l0 236 -25 24 c-13 14 -33 25 -45 25
-11 0 -32 -11 -45 -25z"/>
<path d="M9263 5970 c-36 -15 -45 -69 -41 -251 3 -147 5 -169 22 -188 24 -27
70 -27 96 -1 19 19 20 33 20 214 l0 195 -26 20 c-29 23 -38 24 -71 11z"/>
<path d="M9446 5959 l-26 -20 0 -288 c0 -262 2 -289 18 -303 27 -23 50 -28 76
-16 44 19 47 46 44 337 l-3 273 -24 19 c-30 24 -52 24 -85 -2z"/>
<path d="M8669 5242 c-15 -13 -22 -30 -22 -52 0 -22 7 -39 22 -52 22 -17 50
-18 431 -18 381 0 409 1 431 18 15 13 22 30 22 52 0 22 -7 39 -22 52 -22 17
-50 18 -431 18 -381 0 -409 -1 -431 -18z"/>
<path d="M1680 3180 l0 -710 100 0 100 0 0 300 0 300 300 0 300 0 0 -300 0
-300 100 0 100 0 0 710 0 710 -100 0 -100 0 0 -315 0 -315 -300 0 -300 0 0
315 0 315 -100 0 -100 0 0 -710z"/>
<path d="M3020 3790 l0 -100 100 0 100 0 0 100 0 100 -100 0 -100 0 0 -100z"/>
<path d="M4510 3790 l0 -100 100 0 100 0 0 100 0 100 -100 0 -100 0 0 -100z"/>
<path d="M4830 3795 l0 -95 200 0 200 0 0 -615 0 -615 100 0 100 0 0 615 0
615 200 0 200 0 0 95 0 95 -500 0 -500 0 0 -95z"/>
<path d="M5970 3790 l0 -100 100 0 100 0 0 100 0 100 -100 0 -100 0 0 -100z"/>
<path d="M7470 3180 l0 -710 100 0 100 0 0 148 0 147 87 98 86 98 31 -50 c17
-28 84 -139 149 -246 l118 -195 109 0 109 0 -195 316 -196 316 29 32 c31 32
266 298 291 329 14 16 8 17 -101 17 l-117 0 -200 -241 -200 -241 0 446 0 446
-100 0 -100 0 0 -710z"/>
<path d="M9620 3630 l0 -150 -50 0 -50 0 0 -90 0 -90 49 0 50 0 3 -332 c3
-294 5 -338 21 -373 42 -93 99 -124 234 -128 l98 -2 0 95 0 95 -60 2 c-98 4
-95 -8 -95 344 l0 298 78 3 77 3 3 87 3 87 -78 3 -78 3 -3 148 -3 147 -99 0
-100 0 0 -150z"/>
<path d="M6795 3493 c-110 -15 -220 -79 -274 -159 -58 -88 -71 -153 -71 -353
1 -190 7 -238 46 -316 70 -139 195 -206 389 -206 147 0 268 44 345 126 l24 26
-72 72 -72 71 -32 -31 c-52 -50 -112 -73 -193 -73 -84 0 -137 21 -182 73 -45
51 -53 91 -53 258 0 155 7 193 47 247 76 101 281 104 385 5 l27 -26 71 63 c38
34 70 66 70 70 0 15 -80 80 -131 105 -87 44 -212 63 -324 48z"/>
<path d="M8810 3487 c-155 -37 -253 -138 -296 -306 -13 -51 -15 -100 -12 -240
4 -154 7 -183 27 -234 71 -180 249 -271 479 -245 72 8 169 50 244 104 l50 37
-68 68 c-68 68 -68 69 -89 49 -11 -10 -45 -30 -75 -44 -61 -29 -169 -35 -231
-15 -82 28 -135 96 -146 190 l-6 49 323 0 322 0 -7 103 c-23 320 -148 481
-385 493 -41 2 -100 -2 -130 -9z m219 -200 c45 -30 90 -110 98 -177 l6 -50
-222 0 -221 0 0 23 c0 13 7 48 16 78 19 65 82 131 140 147 59 17 140 7 183
-21z"/>
<path d="M10473 3486 c-164 -38 -241 -124 -251 -281 -6 -100 13 -167 61 -212
61 -58 118 -75 317 -93 141 -13 185 -24 216 -55 46 -46 21 -145 -45 -179 -44
-23 -152 -36 -218 -26 -75 10 -153 41 -219 84 l-52 35 -56 -68 c-31 -38 -56
-73 -56 -78 0 -5 19 -23 43 -40 112 -80 228 -114 397 -114 272 1 402 92 417
295 10 128 -37 230 -126 275 -49 25 -120 39 -259 51 -158 14 -177 18 -208 47
-23 21 -26 30 -21 69 8 76 57 112 165 121 82 7 170 -13 264 -61 l66 -33 56 68
c31 38 56 73 56 78 0 14 -155 89 -220 107 -81 22 -252 27 -327 10z"/>
<path d="M3020 2975 l0 -505 100 0 100 0 0 505 0 505 -100 0 -100 0 0 -505z"/>
<path d="M3500 3390 l0 -90 240 0 c132 0 240 -2 240 -5 0 -3 -110 -150 -245
-326 l-245 -322 0 -89 0 -88 375 0 375 0 0 95 0 96 -250 -3 c-138 -2 -250 0
-250 4 0 5 108 155 240 334 l240 326 0 79 0 79 -360 0 -360 0 0 -90z"/>
<path d="M4510 2975 l0 -505 100 0 100 0 0 505 0 505 -100 0 -100 0 0 -505z"/>
<path d="M5970 2975 l0 -505 100 0 100 0 0 505 0 505 -100 0 -100 0 0 -505z"/>
</g>
</svg>
