<?xml version="1.0" standalone="no"?>
<!DOCTYPE svg PUBLIC "-//W3C//DTD SVG 20010904//EN"
 "http://www.w3.org/TR/2001/REC-SVG-20010904/DTD/svg10.dtd">
<svg version="1.0" xmlns="http://www.w3.org/2000/svg"
 width="1720.000000pt" height="684.000000pt" viewBox="0 0 1720.000000 684.000000"
 preserveAspectRatio="xMidYMid meet">

<g transform="translate(0.000000,684.000000) scale(0.100000,-0.100000)"
fill="#000000" stroke="none">
<path d="M5770 3550 l0 -2680 235 0 235 0 0 2680 0 2680 -235 0 -235 0 0
-2680z"/>
<path d="M1482 5253 l3 -348 113 -3 112 -3 0 236 0 235 235 0 236 0 -3 113 -3
112 -348 3 -347 2 2 -347z"/>
<path d="M2410 5370 l0 -230 -232 -2 -233 -3 0 -115 0 -115 345 0 345 0 3 348
2 347 -115 0 -115 0 0 -230z"/>
<path d="M2870 5485 l0 -115 175 0 175 0 0 115 0 115 -175 0 -175 0 0 -115z"/>
<path d="M3450 5485 l0 -115 290 0 290 0 0 115 0 115 -290 0 -290 0 0 -115z"/>
<path d="M4260 5020 l0 -580 580 0 580 0 0 580 0 580 -580 0 -580 0 0 -580z
m930 0 l0 -350 -347 2 -348 3 -3 348 -2 347 350 0 350 0 0 -350z"/>
<path d="M4724 5127 c-2 -7 -3 -60 -2 -118 l3 -104 115 0 115 0 0 115 0 115
-113 3 c-87 2 -114 0 -118 -11z"/>
<path d="M2870 4790 l0 -350 115 0 115 0 2 231 3 230 170 2 170 2 3 118 3 117
-291 0 -290 0 0 -350z"/>
<path d="M3682 5023 l3 -118 170 0 170 0 3 118 3 117 -176 0 -176 0 3 -117z"/>
<path d="M1480 4555 l0 -115 348 2 347 3 3 113 3 112 -351 0 -350 0 0 -115z"/>
<path d="M2410 4440 l0 -230 115 0 115 0 0 230 0 230 -115 0 -115 0 0 -230z"/>
<path d="M3450 4555 l0 -115 175 0 175 0 0 -465 0 -466 113 3 112 3 3 578 2
577 -290 0 -290 0 0 -115z"/>
<path d="M9796 4378 c-3 -13 -6 -74 -6 -137 l0 -114 63 6 c34 4 140 9 236 13
l173 7 -4 -671 -3 -672 165 0 165 0 -4 670 -3 670 83 0 c46 0 149 -5 229 -10
79 -5 145 -8 146 -7 1 1 4 62 8 135 l7 132 -624 0 -625 0 -6 -22z"/>
<path d="M1480 4095 l0 -115 230 0 230 0 2 -232 3 -233 115 0 115 0 0 345 0
345 -347 3 -348 2 0 -115z"/>
<path d="M2870 4095 l0 -115 290 0 290 0 0 115 0 115 -290 0 -290 0 0 -115z"/>
<path d="M4260 4095 l0 -115 115 0 115 0 0 115 0 115 -115 0 -115 0 0 -115z"/>
<path d="M4725 4197 c-3 -6 -4 -163 -3 -347 l3 -335 115 0 115 0 3 233 2 232
230 0 230 0 0 115 0 115 -345 0 c-268 0 -347 -3 -350 -13z"/>
<path d="M12651 4183 l-94 -4 6 -43 c20 -146 29 -486 23 -888 l-7 -438 128 0
129 0 -4 230 c-3 132 -1 230 5 230 20 0 56 -35 116 -113 82 -105 205 -292 213
-323 6 -24 6 -24 155 -24 114 0 149 3 149 13 0 48 -275 437 -365 516 -19 17
-35 34 -35 39 0 4 32 34 70 67 93 77 270 272 270 296 0 5 -64 9 -142 8 l-143
0 -47 -72 c-50 -78 -179 -233 -216 -261 -13 -10 -26 -15 -30 -11 -8 8 -5 582
4 703 l6 82 -49 -2 c-26 -1 -90 -4 -142 -5z"/>
<path d="M8100 4158 c-57 -29 -84 -75 -84 -144 0 -85 57 -144 142 -144 95 0
162 61 169 153 10 126 -107 195 -227 135z"/>
<path d="M9460 4158 c-57 -29 -84 -75 -84 -144 0 -85 57 -144 142 -144 95 0
162 61 169 153 10 126 -107 195 -227 135z"/>
<path d="M11280 4158 c-57 -29 -84 -75 -84 -144 0 -85 57 -144 142 -144 95 0
162 61 169 153 10 126 -107 195 -227 135z"/>
<path d="M6735 3445 l0 -635 136 0 135 0 -4 280 -5 280 248 0 248 0 -7 -280
-8 -280 142 0 141 0 -7 48 c-10 62 -10 1136 -1 1185 l8 37 -141 0 -140 0 6
-255 7 -255 -247 0 -248 0 4 255 3 255 -135 0 -135 0 0 -635z"/>
<path d="M14840 4019 c-36 -5 -80 -11 -97 -14 l-33 -6 0 -112 c0 -162 1 -159
-79 -155 l-66 3 -3 -95 -3 -96 65 4 64 4 4 -258 c4 -227 7 -267 25 -322 28
-83 61 -125 128 -157 67 -33 200 -44 279 -23 56 15 59 21 69 131 5 52 4 58
-11 52 -9 -3 -44 -8 -77 -11 -114 -10 -158 35 -175 181 -11 100 -13 309 -3
368 l6 39 116 -3 116 -4 3 98 3 97 -122 -7 -122 -6 8 151 c7 144 6 152 -12
151 -10 -1 -47 -5 -83 -10z"/>
<path d="M2410 3745 l0 -235 520 0 520 0 0 120 0 120 -405 0 -405 0 0 115 0
115 -115 0 -115 0 0 -235z"/>
<path d="M12035 3768 c-176 -33 -331 -183 -380 -369 -18 -68 -19 -199 -1 -264
33 -126 135 -253 240 -301 124 -56 329 -69 453 -28 l52 17 6 56 c3 31 8 76 10
100 4 35 2 42 -10 37 -8 -3 -52 -13 -97 -22 -189 -38 -325 19 -391 165 -31 67
-30 197 1 267 45 99 129 154 236 154 47 0 139 -18 177 -34 13 -6 18 9 33 95 9
56 13 106 9 110 -25 25 -240 36 -338 17z"/>
<path d="M13899 3762 c-203 -55 -339 -253 -339 -493 0 -141 42 -250 132 -346
100 -105 240 -149 442 -140 67 3 154 13 194 22 85 20 86 21 97 138 6 74 6 79
-12 73 -38 -12 -220 -36 -275 -36 -85 0 -153 18 -206 54 -51 36 -99 104 -112
159 l-7 35 313 7 313 7 7 64 c8 82 -10 203 -41 271 -34 75 -108 145 -181 173
-82 31 -234 37 -325 12z m221 -184 c52 -26 85 -78 95 -149 l7 -46 -129 -6
c-70 -4 -163 -7 -206 -7 l-79 0 7 33 c19 88 79 169 140 186 55 17 119 12 165
-11z"/>
<path d="M15565 3766 c-112 -29 -172 -72 -211 -152 -22 -46 -28 -71 -28 -123
1 -129 57 -190 268 -291 152 -73 189 -102 189 -150 0 -43 -27 -67 -92 -81 -67
-14 -221 -6 -301 15 -30 9 -55 14 -55 13 -1 -1 -7 -36 -14 -77 -7 -41 -15 -82
-17 -92 -7 -23 70 -38 226 -45 207 -9 348 30 423 117 44 52 61 112 55 198 -10
141 -76 202 -325 301 -106 42 -135 69 -131 118 2 26 11 42 31 57 25 19 41 21
140 20 73 -1 129 -7 162 -17 27 -9 51 -15 52 -13 11 10 35 178 27 186 -28 27
-310 38 -399 16z"/>
<path d="M8120 3744 c-63 -7 -115 -13 -115 -13 -1 -1 5 -45 13 -98 15 -106 21
-703 7 -781 l-7 -42 137 0 c124 0 137 2 131 17 -9 23 -15 653 -7 806 l6 127
-25 -1 c-14 -1 -77 -7 -140 -15z"/>
<path d="M9480 3744 c-63 -7 -115 -13 -115 -13 -1 -1 5 -45 13 -98 15 -106 21
-703 7 -781 l-7 -42 137 0 c124 0 137 2 131 17 -9 23 -15 653 -7 806 l6 127
-25 -1 c-14 -1 -77 -7 -140 -15z"/>
<path d="M11300 3744 c-63 -7 -115 -13 -115 -13 -1 -1 5 -45 13 -98 15 -106
21 -702 7 -780 l-7 -43 137 0 c113 0 136 2 132 14 -11 27 -18 583 -10 759 l8
177 -25 -1 c-14 -1 -77 -7 -140 -15z"/>
<path d="M1480 3400 l0 -350 230 0 230 0 0 115 0 115 -115 0 -115 0 0 235 0
235 -115 0 -115 0 0 -350z"/>
<path d="M4264 3737 c-2 -7 -3 -60 -2 -118 l3 -104 113 -3 112 -3 0 121 0 120
-110 0 c-82 0 -112 -3 -116 -13z"/>
<path d="M5190 3515 l0 -235 -115 0 -115 0 0 -115 0 -115 230 0 230 0 0 350 0
350 -115 0 -115 0 0 -235z"/>
<path d="M8470 3649 c0 -100 0 -101 23 -96 12 3 109 9 215 13 166 6 192 5 192
-8 0 -28 -181 -274 -346 -468 l-81 -96 -6 -92 -7 -92 370 0 370 0 0 101 0 102
-37 -6 c-21 -3 -118 -9 -215 -13 -177 -7 -178 -7 -178 14 0 34 155 252 337
474 l63 77 6 95 7 96 -357 0 -356 0 0 -101z"/>
<path d="M2177 3168 l2 -113 116 -3 115 -3 0 116 0 115 -117 0 -118 0 2 -112z"/>
<path d="M2640 3165 l0 -115 115 0 115 0 0 -230 0 -230 290 0 290 0 0 115 0
115 -175 0 -175 0 0 230 0 230 -230 0 -230 0 0 -115z"/>
<path d="M3450 3165 l0 -115 290 0 290 0 0 115 0 115 -290 0 -290 0 0 -115z"/>
<path d="M4260 3165 l0 -115 231 2 231 3 2 113 1 112 -232 0 -233 0 0 -115z"/>
<path d="M1480 2240 l0 -580 580 0 580 0 0 580 0 580 -580 0 -580 0 0 -580z
m928 -2 l2 -348 -350 0 -350 0 0 350 0 350 348 -2 347 -3 3 -347z"/>
<path d="M1944 2347 c-2 -7 -3 -60 -2 -118 l3 -104 115 0 115 0 0 115 0 115
-113 3 c-87 2 -114 0 -118 -11z"/>
<path d="M3798 2589 l-3 -230 -170 -2 -170 -2 -3 -117 -3 -118 291 0 290 0 0
350 0 350 -115 0 -115 0 -2 -231z"/>
<path d="M4260 2240 l0 -580 580 0 580 0 0 580 0 580 -580 0 -580 0 0 -580z
m930 0 l0 -350 -350 0 -350 0 0 343 c0 189 3 347 7 350 3 4 161 7 350 7 l343
0 0 -350z"/>
<path d="M4724 2347 c-2 -7 -3 -60 -2 -118 l3 -104 115 0 115 0 0 115 0 115
-113 3 c-87 2 -114 0 -118 -11z"/>
<path d="M2877 2354 c-4 -4 -7 -58 -7 -121 l0 -113 175 0 176 0 -3 118 -3 117
-166 3 c-91 1 -168 -1 -172 -4z"/>
<path d="M2870 1775 l0 -115 290 0 290 0 0 115 0 115 -290 0 -290 0 0 -115z"/>
<path d="M3680 1775 l0 -115 175 0 175 0 0 115 0 115 -175 0 -175 0 0 -115z"/>
</g>
</svg>
